# AST/ASF file generated using VICON BodyLanguage
# -----------------------------------------------
:version 1.10
:name VICON
:units
  mass 1.0
  length 0.45
  angle deg
:documentation
   .ast/.asf automatically generated from VICON data using
   VICON BodyBuilder and BodyLanguage model FoxedUp or BRILLIANT.MOD
:root
   order TX TY TZ RX RY RZ
   axis XYZ
   position 0 0 0  
   orientation 0 0 0 
:bonedata
  begin
     id 1 
     name lhipjoint
     direction 0.682418 -0.694059 0.22932 
     length 2.25561 
     axis 0 0 0  XYZ
  end
  begin
     id 2 
     name lfemur
     direction 0.34202 -0.939693 0  
     length 6.96448  
     axis 0 0 20  XYZ
    dof rx ry rz
    limits (-160.0 20.0)
           (-70.0 70.0)
           (-60.0 70.0)
  end
  begin
     id 3 
     name ltibia
     direction 0.34202 -0.939693 0   
     length 6.88553   
     axis 0 0 20   XYZ
    dof rx
    limits (-10.0 170.0)
  end
  begin
     id 4 
     name lfoot
     direction 0.0723587 -0.198804 0.977364   
     length 1.88518   
     axis -90 7.62852e-016 20   XYZ
    dof rx rz
    limits (-45.0 90.0)
           (-70.0 20.0)
  end
  begin
     id 5 
     name ltoes
     direction 1.53558e-011 -4.21962e-011 1   
     length 0.952124   
     axis -90 7.62852e-016 20   XYZ
    dof rx
    limits (-90.0 20.0)
  end
  begin
     id 6 
     name rhipjoint
     direction -0.657603 -0.71533 0.236348   
     length 2.18854  
     axis 0 0 0  XYZ 
  end
  begin
     id 7 
     name rfemur
     direction -0.34202 -0.939693 0   
     length 6.86686   
     axis 0 0 -20   XYZ
    dof rx ry rz
    limits (-160.0 20.0)
           (-70.0 70.0)
           (-70.0 60.0)
  end
  begin
     id 8 
     name rtibia
     direction -0.34202 -0.939693 0   
     length 6.59503   
     axis 0 0 -20   XYZ
    dof rx
    limits (-10.0 170.0)
 end
 begin
     id 9 
     name rfoot
     direction -0.101977 -0.280179 0.954516   
     length 1.93723  
     axis -90 -7.62852e-016 -20   XYZ
    dof rx rz
    limits (-45.0 90.0)
           (-20.0 70.0)
  end
  begin
     id 10 
     name rtoes
     direction -1.53564e-011 -4.21897e-011 1   
     length 0.970315   
     axis -90 -7.62852e-016 -20   XYZ
    dof rx
    limits (-90.0 20.0)
  end
  begin
     id 11 
     name lowerback
     direction -0.0339559 0.999421 -0.00235966   
     length 1.88543   
     axis 0 0 0   XYZ
    dof rx ry rz
    limits (-20.0 45.0)
           (-30.0 30.0)
           (-30.0 30.0)
  end
  begin
     id 12 
     name upperback
     direction 0.00401003 0.999739 0.0224689   
     length 1.8856   
     axis 0 0 0   XYZ
    dof rx ry rz
    limits (-20.0 45.0)
           (-30.0 30.0)
           (-30.0 30.0)
  end
  begin
     id 13 
     name thorax
     direction 0.0198619 0.999546 0.0226536   
     length 1.88352   
     axis 0 0 0   XYZ
    dof rx ry rz
    limits (-20.0 45.0)
           (-30.0 30.0)
           (-30.0 30.0)
  end
  begin
     id 14 
     name lowerneck
     direction -0.0461848 0.998632 0.0245198   
     length 1.34895   
     axis 0 0 0   XYZ
    dof rx ry rz
    limits (-20.0 45.0)
           (-30.0 30.0)
           (-30.0 30.0)
  end
  begin
     id 15 
     name upperneck
     direction -0.0180627 0.994724 -0.100984   
     length 1.35214   
     axis 0 0 0   XYZ
    dof rx ry rz
    limits (-20.0 45.0)
           (-30.0 30.0)
           (-30.0 30.0)
  end
  begin
     id 16
     name head
     direction -0.00374772 0.999293 -0.037403  
     length 1.3568  
     axis 0 0 0   XYZ
    dof rx ry rz
    limits (-20.0 45.0)
           (-30.0 30.0)
           (-30.0 30.0)
  end
  begin
     id 17 
     name lclavicle
     direction 0.971773 0.191119 0.138311  
     length 2.84954  
     axis 0 0 0   XYZ
    dof ry rz
    limits (-20.0 10.0)
           (0.0 20.0)
  end
  begin
     id 18 
     name lhumerus
     direction 1 -4.4897e-011 -2.43761e-027   
     length 4.40919   
     axis 180 -30 -90   XYZ
    dof rx ry rz
    limits (-60.0 90.0)
           (-90.0 90.0)
           (-90.0 90.0)
  end
  begin
     id 19
     name lradius
     direction 1 -4.4896e-011 -9.1621e-027   
     length 3.03857   
     axis 180 -30 -90   XYZ
    dof rx
    limits (-10.0 170.0)
  end
  begin
     id 20
     name lwrist
     direction 1 -4.4896e-011 -1.41363e-026   
     length 1.51928   
     axis 1.07133e-014 90 90   XYZ
    dof ry
    limits (-180.0 0.0)
 end
  begin
     id 21 
     name lhand
     direction 1 -4.48978e-011 -2.82725e-026   
     length 0.523208   
     axis 1.80403e-014 90 90   XYZ
    dof rx rz
    limits (-90.0 90.0)
           (-45.0 45.0)
  end
  begin
     id 22 
     name lfingers
     direction 1 -4.48977e-011 -5.6545e-026   
     length 0.421824   
     axis 3.60806e-014 90 90   XYZ
    dof rx
    limits (0.0 90.0)
  end
  begin
     id 23
     name lthumb
     direction 0.707107 -6.34962e-011 0.707107   
     length 0.605657   
     axis -90 45 2.85299e-015   XYZ
    dof rx rz
    limits (-45.0 45.0)
           (-45.0 45.0)
  end
  begin
     id 24 
     name rclavicle
     direction -0.957247 0.24311 0.156766   
     length 3.12406  
     axis 0 0 0   XYZ 
    dof ry rz
    limits (-10.0 20.0)
           (-20.0 0.0)
  end
  begin
     id 25 
     name rhumerus
     direction -1 -4.48964e-011 -1.70632e-027  
     length 4.61969   
     axis 180 30 90   XYZ
    dof rx ry rz
    limits (-90.0 60.0)
           (-90.0 90.0)
           (-90.0 90.0)
  end
  begin
     id 26 
     name rradius
     direction -1 -4.48966e-011 -6.60395e-027   
     length 3.09382   
     axis 180 30 90   XYZ
    dof rx
    limits (-10.0 170.0)
  end
  begin
     id 27 
     name rwrist
     direction -1 -4.48963e-011 -1.41363e-026   
     length 1.54691   
     axis 1.07133e-014 -90 -90   XYZ
    dof ry
    limits (-180.0 0.0)
  end
  begin
     id 28
     name rhand
     direction -1 -4.49013e-011 -2.82725e-026   
     length 0.500896   
     axis 1.80403e-014 -90 -90   XYZ
    dof rx rz
    limits (-90.0 90.0)
           (-45.0 45.0)
  end
  begin
     id 29
     name rfingers
     direction -1 -4.48902e-011 -5.6545e-026   
     length 0.403835   
     axis 3.60806e-014 -90 -90   XYZ
    dof rx
    limits (0.0 90.0)
  end
  begin
     id 30
     name rthumb
     direction -0.707107 -6.34953e-011 0.707107   
     length 0.579829   
     axis -90 -45 -2.85299e-015   XYZ
    dof rx rz
    limits (-45.0 45.0)
           (-45.0 45.0)
  end
:hierarchy
  begin
    root lhipjoint rhipjoint lowerback
    lhipjoint lfemur
    lfemur ltibia
    ltibia lfoot
    lfoot ltoes
    rhipjoint rfemur
    rfemur rtibia
    rtibia rfoot
    rfoot rtoes
    lowerback upperback
    upperback thorax
    thorax lowerneck lclavicle rclavicle
    lowerneck upperneck
    upperneck head
    lclavicle lhumerus
    lhumerus lradius
    lradius lwrist
    lwrist lhand lthumb
    lhand lfingers
    rclavicle rhumerus
    rhumerus rradius
    rradius rwrist
    rwrist rhand rthumb
    rhand rfingers
  end

#!OML:ASF E:\madness\Project 1\Capture day 1\Session 1\Female1.ASF
:FULLY-SPECIFIED
:DEGREES
1024
root 7.33012 16.4287 -1.50374 232.058 -85.3705 -224.839
lowerback -7.4006 0.582113 -3.8554
upperback -5.72068 0.783131 0.268285
thorax -1.83642 0.429514 2.48565
lowerneck 4.91043 10.8154 5.98569
upperneck 1.76368 14.7389 -7.32801
head 0.794539 7.42972 -3.36821
rclavicle -1.11319e-014 -1.98785e-015
rhumerus -48.1203 -3.01935 -84.7918
rradius 39.4451
rwrist -9.89705
rhand -19.211 -52.4467
rfingers 7.12502
rthumb 7.10147 -82.3075
lclavicle -1.11319e-014 -1.98785e-015
lhumerus -49.9368 2.48012 87.6324
lradius 44.7198
lwrist 4.16987
lhand -29.7901 10.0817
lfingers 7.12502
lthumb -3.11478 40.0387
rfemur -1.35438 5.38581 19.6547
rtibia 3.85019
rfoot -11.0717 -14.6498
rtoes 23.2455
lfemur -8.73718 -15.2471 -15.2303
ltibia 13.6567
lfoot -2.66063 26.0374
ltoes 10.1969
1025
root 7.3318 16.4321 -1.4988 232.523 -85.3718 -225.26
lowerback -7.50317 0.569015 -3.92088
upperback -5.66055 0.77704 0.291183
thorax -1.71846 0.426508 2.54738
lowerneck 5.03943 10.7864 6.11194
upperneck 1.5445 14.7055 -7.59508
head 0.732176 7.4187 -3.49478
rclavicle -1.72943e-014 1.98785e-015
rhumerus -47.9705 -2.99566 -84.8382
rradius 38.9641
rwrist -9.79112
rhand -15.6718 -52.5547
rfingers 7.12502
rthumb 10.5168 -82.2716
lclavicle -1.72943e-014 1.98785e-015
lhumerus -49.7791 2.75071 87.547
lradius 44.0426
lwrist 3.65561
lhand -28.4529 11.6312
lfingers 7.12502
lthumb -1.82334 41.6032
rfemur -1.49975 5.36191 19.6211
rtibia 4.05732
rfoot -11.1776 -14.6066
rtoes 23.0732
lfemur -8.73158 -15.1229 -15.2313
ltibia 13.5164
lfoot -2.68542 25.8008
ltoes 9.62921
1026
root 7.33817 16.4332 -1.49045 233.322 -85.3551 -225.961
lowerback -7.56361 0.53141 -3.96959
upperback -5.64 0.733391 0.321145
thorax -1.66203 0.405362 2.60411
lowerneck 4.94528 10.8029 6.07491
upperneck 1.58858 14.7245 -7.691
head 0.769481 7.42593 -3.51152
rclavicle -4.12478e-015 -2.54444e-014
rhumerus -47.8681 -3.26235 -84.5534
rradius 38.4852
rwrist -8.44151
rhand -18.0266 -53.3673
rfingers 7.12502
rthumb 8.24469 -83.1865
lclavicle -4.12478e-015 -2.54444e-014
lhumerus -49.6671 3.14828 87.4092
lradius 43.4062
lwrist 2.90377
lhand -28.2234 10.8725
lfingers 7.12502
lthumb -1.60166 40.8462
rfemur -1.64647 5.32467 19.5182
rtibia 4.05671
rfoot -11.1581 -14.5636
rtoes 23.1201
lfemur -8.83975 -15.1736 -15.2313
ltibia 13.4089
lfoot -2.70465 25.5977
ltoes 8.79668
1027
root 7.34131 16.433 -1.48283 233.907 -85.3913 -226.477
lowerback -7.60733 0.521767 -3.95491
upperback -5.62613 0.72248 0.342481
thorax -1.62264 0.39903 2.6179
lowerneck 4.85465 10.7904 5.99891
upperneck 1.67464 14.7038 -7.73671
head 0.809266 7.41241 -3.50503
rclavicle 3.13086e-015 -6.36111e-015
rhumerus -47.7012 -3.53964 -84.312
rradius 37.6898
rwrist -7.73673
rhand -15.7093 -52.0371
rfingers 7.12502
rthumb 10.4806 -81.7558
lclavicle 3.13086e-015 -6.36111e-015
lhumerus -49.6001 3.32164 87.3479
lradius 42.761
lwrist 1.93581
lhand -29.2843 8.89925
lfingers 7.12502
lthumb -2.62629 38.8628
rfemur -1.62012 5.26043 19.4654
rtibia 3.79333
rfoot -10.9566 -14.5687
rtoes 23.1549
lfemur -8.95856 -15.2981 -15.1874
ltibia 13.3937
lfoot -2.72521 25.4794
ltoes 8.23937
1028
root 7.34022 16.4339 -1.47761 234.315 -85.4566 -226.824
lowerback -7.7035 0.518551 -3.92019
upperback -5.59264 0.721985 0.357874
thorax -1.53408 0.396142 2.61558
lowerneck 4.97715 10.7009 5.96504
upperneck 1.53182 14.5809 -7.93802
head 0.747056 7.35436 -3.58271
rclavicle 9.0447e-015 7.95139e-015
rhumerus -47.496 -3.19322 -84.7613
rradius 36.9747
rwrist -9.67603
rhand -24.2306 -48.8372
rfingers 7.12502
rthumb 2.25468 -78.8051
lclavicle 9.0447e-015 7.95139e-015
lhumerus -49.4976 3.35855 87.3464
lradius 42.09
lwrist 0.891122
lhand -29.5842 9.04313
lfingers 7.12502
lthumb -2.91593 39.0029
rfemur -1.51413 5.18806 19.4557
rtibia 3.46333
rfoot -10.7472 -14.5662
rtoes 23.1268
lfemur -9.01809 -15.3072 -15.1223
ltibia 13.4223
lfoot -3.37891 25.3824
ltoes 9.56417
1029
root 7.34211 16.4356 -1.47023 235.305 -85.5118 -227.76
lowerback -7.70205 0.50841 -3.91898
upperback -5.59509 0.708486 0.363789
thorax -1.5365 0.389587 2.62018
lowerneck 5.44795 10.5377 6.23357
upperneck 1.03245 14.3741 -8.56771
head 0.56189 7.26885 -3.89459
rclavicle -7.30534e-015 1.19271e-014
rhumerus -47.4596 -3.21259 -84.842
rradius 36.342
rwrist -10.1648
rhand -21.6454 -50.1268
rfingers 7.12502
rthumb 4.75119 -80.0535
lclavicle -7.30534e-015 1.19271e-014
lhumerus -49.4242 3.45736 87.3112
lradius 41.4502
lwrist 0.172254
lhand -29.2658 9.69691
lfingers 7.12502
lthumb -2.60839 39.6607
rfemur -1.44628 5.08559 19.402
rtibia 3.20221
rfoot -10.6612 -14.5369
rtoes 23.2465
lfemur -9.04257 -15.3912 -15.0868
ltibia 13.4323
lfoot -4.11991 25.2017
ltoes 11.543
1030
root 7.3452 16.4373 -1.46083 236.186 -85.5707 -228.646
lowerback -7.57454 0.505086 -3.90799
upperback -5.62744 0.697561 0.381171
thorax -1.63979 0.386705 2.62975
lowerneck 5.35842 10.4735 6.24513
upperneck 1.1811 14.2926 -8.6921
head 0.630416 7.22499 -3.92886
rclavicle -5.36719e-015 -3.97569e-016
rhumerus -47.5728 -3.32637 -84.8008
rradius 35.8988
rwrist -9.65523
rhand -25.5322 -47.9557
rfingers 7.12502
rthumb 0.997597 -77.9331
lclavicle -5.36719e-015 -3.97569e-016
lhumerus -49.4702 3.573 87.2595
lradius 40.9347
lwrist -0.147498
lhand -29.1605 9.31023
lfingers 7.12502
lthumb -2.50668 39.2752
rfemur -1.35408 4.98721 19.3575
rtibia 2.98473
rfoot -10.5699 -14.5223
rtoes 23.3559
lfemur -9.06267 -15.5073 -15.0547
ltibia 13.4164
lfoot -3.81383 25.0278
ltoes 11.2855
1031
root 7.34614 16.4373 -1.45267 236.69 -85.5944 -229.17
lowerback -7.47041 0.50539 -3.90442
upperback -5.6687 0.691813 0.391167
thorax -1.73998 0.386194 2.6364
lowerneck 5.238 10.4606 6.15294
upperneck 1.39083 14.2747 -8.62066
head 0.704817 7.21011 -3.87367
rclavicle -4.17448e-015 2.78299e-015
rhumerus -47.6647 -3.23391 -84.8757
rradius 35.5692
rwrist -9.01898
rhand -23.4178 -49.6601
rfingers 7.12502
rthumb 3.03961 -79.6182
lclavicle -4.17448e-015 2.78299e-015
lhumerus -49.5132 3.77743 87.1049
lradius 40.3755
lwrist -0.414905
lhand -28.7904 8.84271
lfingers 7.12502
lthumb -2.14925 38.8116
rfemur -1.26299 4.93428 19.3169
rtibia 2.83679
rfoot -10.4443 -14.5355
rtoes 23.301
lfemur -9.08644 -15.636 -15.0259
ltibia 13.3647
lfoot -3.56509 24.9627
ltoes 11.1777
1032
root 7.34753 16.4384 -1.44543 236.881 -85.5804 -229.323
lowerback -7.36911 0.524568 -3.89915
upperback -5.76516 0.706891 0.378034
thorax -1.89752 0.396303 2.61907
lowerneck 5.4981 10.4168 6.19605
upperneck 1.25277 14.2206 -8.72016
head 0.622019 7.19035 -3.93894
rclavicle 3.23025e-015 -1.19271e-014
rhumerus -47.7402 -3.19406 -84.8523
rradius 35.1513
rwrist -8.29554
rhand -20.0845 -51.4982
rfingers 7.12502
rthumb 6.25828 -81.3857
lclavicle 3.23025e-015 -1.19271e-014
lhumerus -49.5433 4.12052 86.798
lradius 39.6054
lwrist -0.92938
lhand -28.3977 8.21248
lfingers 7.12502
lthumb -1.77001 38.1849
rfemur -1.26917 4.928 19.2665
rtibia 2.78866
rfoot -10.4002 -14.5521
rtoes 23.1224
lfemur -9.09948 -15.7562 -15.0027
ltibia 13.261
lfoot -3.58207 24.8991
ltoes 11.2232
1033
root 7.35029 16.44 -1.4383 236.529 -85.6034 -228.896
lowerback -7.31097 0.577653 -3.82125
upperback -5.8515 0.765307 0.35222
thorax -2.02204 0.424761 2.55056
lowerneck 5.74722 10.4117 6.38084
upperneck 1.10348 14.2279 -8.86542
head 0.557376 7.20278 -4.04259
rclavicle 1.63997e-015 -2.82274e-014
rhumerus -47.8092 -3.6227 -84.4761
rradius 34.7156
rwrist -6.787
rhand -17.5527 -51.7897
rfingers 7.12502
rthumb 8.70205 -81.5903
lclavicle 1.63997e-015 -2.82274e-014
lhumerus -49.5976 4.2779 86.5796
lradius 38.8736
lwrist -1.48431
lhand -28.4486 7.18416
lfingers 7.12502
lthumb -1.81916 37.1562
rfemur -1.37756 4.94171 19.276
rtibia 2.83487
rfoot -10.4042 -14.5483
rtoes 23.1658
lfemur -9.11552 -15.778 -14.916
ltibia 13.1318
lfoot -3.35084 24.7047
ltoes 10.2805
1034
root 7.35115 16.4399 -1.42942 236.546 -85.6452 -228.941
lowerback -7.25278 0.628183 -3.73187
upperback -5.85247 0.826113 0.32452
thorax -2.05696 0.452866 2.4741
lowerneck 5.76609 10.4459 6.44132
upperneck 1.11814 14.2798 -8.83106
head 0.565194 7.2294 -4.04093
rclavicle -5.36719e-015 3.97569e-016
rhumerus -47.8863 -4.2248 -84.0119
rradius 34.4323
rwrist -5.20339
rhand -15.7006 -51.3773
rfingers 7.12502
rthumb 10.4889 -81.0956
lclavicle -5.36719e-015 3.97569e-016
lhumerus -49.7102 4.20466 86.566
lradius 38.4542
lwrist -1.75654
lhand -28.4201 6.86037
lfingers 7.12502
lthumb -1.79163 36.8326
rfemur -1.31658 4.91163 19.2718
rtibia 2.78457
rfoot -10.3541 -14.5102
rtoes 23.4097
lfemur -9.01409 -15.8996 -14.8728
ltibia 13.0093
lfoot -3.3244 24.5923
ltoes 10.4949
1035
root 7.34905 16.4419 -1.41875 237.01 -85.6296 -229.426
lowerback -7.25169 0.661589 -3.6914
upperback -5.82026 0.870588 0.296783
thorax -2.0255 0.473021 2.42513
lowerneck 5.6241 10.443 6.38584
upperneck 1.28894 14.2749 -8.84527
head 0.642027 7.22165 -4.02013
rclavicle -8.94531e-015 9.54166e-015
rhumerus -47.9255 -4.60662 -83.7569
rradius 34.1756
rwrist -4.3467
rhand -14.9174 -51.2891
rfingers 7.12502
rthumb 11.2445 -80.9677
lclavicle -8.94531e-015 9.54166e-015
lhumerus -49.7389 4.24757 86.5315
lradius 38.0279
lwrist -1.99151
lhand -28.4042 6.93515
lfingers 7.12502
lthumb -1.77629 36.9075
rfemur -1.16877 4.87849 19.1705
rtibia 2.55541
rfoot -10.2736 -14.5065
rtoes 23.3909
lfemur -8.91687 -16.0767 -14.9301
ltibia 12.9206
lfoot -3.48273 24.5846
ltoes 10.8799
